<svg width="54px" height="51px" viewBox="0 0 54 51" version="1.1" xmlns="http://www.w3.org/2000/svg" xmlns:xlink="http://www.w3.org/1999/xlink">
    <g id="Page-1" stroke="none" stroke-width="1" fill="none" fill-rule="evenodd">
        <g id="Artboard-Copy-4" transform="translate(-461.000000, -91.000000)" fill="#FFFFFF" fill-rule="nonzero">
            <g id="Neo4j-logo-white" transform="translate(461.000000, 91.470009)">
                <path d="M21.610164,28 C20.3305642,28.0013738 19.0868322,28.4229779 18.070164,29.2 L11.590164,24.77 C11.7343804,24.2522457 11.8083757,23.7174613 11.810164,23.18 C11.8385371,20.7924634 10.4226981,18.6240124 8.22539012,17.6896818 C6.0280821,16.7553511 3.48409398,17.24002 1.78424637,18.9168189 C0.0843987512,20.5936177 -0.434953617,23.1307525 0.469293976,25.3406105 C1.37354157,27.5504685 3.52246252,28.9957776 5.91016401,29 C7.19013218,29.0008589 8.4345611,28.5790186 9.45016401,27.8 L15.910164,32.26 C15.6167337,33.3030901 15.6167337,34.4069099 15.910164,35.45 L9.43016401,39.88 C8.41999715,39.1051416 7.18328231,38.6835342 5.91016401,38.68 C3.52202158,38.6759557 1.36696872,40.1119602 0.451196981,42.3175446 C-0.464574758,44.5231291 0.0395683332,47.0632474 1.72824246,48.7519215 C3.41691659,50.4405957 5.95703496,50.9447388 8.1626194,50.028967 C10.3682038,49.1131953 11.8042083,46.9581424 11.800164,44.57 C11.7998544,44.0396858 11.7292392,43.5117532 11.590164,43 L18.070164,38.57 C19.0868322,39.3470221 20.3305642,39.7686262 21.610164,39.77 C24.6976285,39.5494201 27.0897178,36.9803339 27.0897178,33.885 C27.0897178,30.7896661 24.6976285,28.2205799 21.610164,28 L21.610164,28 Z" id="Path"></path>
                <path d="M36.140164,0 C25.560164,0 18.460164,6.16 18.460164,18.11 L18.460164,26.63 C19.5343418,26.1020224 20.7133019,25.8218057 21.910164,25.81 C23.1093051,25.8102723 24.2926089,26.0838686 25.370164,26.61 L25.370164,18.07 C25.370164,10.32 29.650164,6.34 36.170164,6.34 C42.690164,6.34 46.910164,10.32 46.910164,18.07 L46.910164,36.69 L53.8002062,36.69 L53.8002062,18.07 C53.820164,6.05 46.720164,0 36.140164,0 Z" id="Path"></path>
            </g>
        </g>
    </g>
</svg>